<?xml version="1.0" encoding="utf-8"?>
<!-- Generator: Adobe Illustrator 18.1.1, SVG Export Plug-In . SVG Version: 6.00 Build 0)  -->
<svg xmlns="http://www.w3.org/2000/svg" xmlns:xlink="http://www.w3.org/1999/xlink" version="1.1" x="0px" y="0px" viewBox="0 0 1400 980" enable-background="new 0 0 1400 980" xml:space="preserve">
<g id="Layer_7">
	<radialGradient id="SVGID_1_" cx="700" cy="490" r="604.1937" gradientUnits="userSpaceOnUse">
		<stop offset="0" style="stop-color:#FFFFFF"/>
		<stop offset="1" style="stop-color:#C3C2C2"/>
	</radialGradient>
	
	<g id="Layer_5_1_">
		<g enable-background="new    ">
			<path d="M307.1,767.2h-23.3V704L259,767.2h-17.8l-24.3-63.1v63.1h-23.3V647.5h23.3l33.2,79.2l33.6-79.2h23.3V767.2z"/>
			<path d="M410.7,767.2h-70.2V647.5h70.7v18.8h-47.4v30.3h29l-6.6,18h-22.4v35.6h47V767.2z"/>
			<path d="M515.2,767.2h-76.4V647.5h23.3V750h53.1V767.2z"/>
			<path d="M578.3,767.2h-46.3V647.5h43.2c11.7,0,21.4,2.6,29.2,7.9c7.8,5.2,11.6,12.7,11.6,22.4c0,10.7-4.7,18.6-14,23.8     c-0.1,0.1-0.2,0.2-0.2,0.3v0.2c6.2,2.3,11.4,5.9,15.5,10.9c4.2,5,6.2,11.4,6.2,19.2c0,4.3-0.8,8.5-2.3,12.4     c-1.6,3.9-4,7.6-7.4,11.1c-3.4,3.5-8.1,6.3-14.2,8.4C593.6,766.2,586.4,767.2,578.3,767.2z M555.2,696.6h10.2     c8,0,14-1.2,17.8-3.6c3.8-2.4,5.7-6.5,5.7-12.3c0-5.4-1.8-9.1-5.3-11.2c-3.5-2.1-8.9-3.2-16.1-3.2h-12.3V696.6z M555.2,750h12.9     c9.7,0,17-1.2,21.7-3.5c4.7-2.3,7.1-7.2,7.1-14.6c0-11.4-9-17.1-26.9-17.1h-14.8V750z"/>
			<path d="M734,680.7v54.9c0,11.5-4.3,20-13,25.4c-8.7,5.4-19.1,8.1-31.2,8.1c-12.1,0-22.6-2.7-31.4-8.1     c-8.8-5.4-13.2-13.9-13.2-25.4v-55.1c0-11.7,4-20.6,12-26.7c8-6,18.9-9.1,32.9-9.1c14,0,24.8,3.2,32.5,9.6     C730.1,660.7,734,669.5,734,680.7z M710.7,732v-45.2c0-7.3-1.4-12.7-4.1-16.3c-2.8-3.6-8.4-5.4-17-5.4c-8.6,0-14.3,1.7-17,5.2     c-2.8,3.5-4.1,8.9-4.1,16.3v45.7c0,5.5,1.7,9.8,5.2,12.9c3.5,3.1,8.8,4.7,16,4.7c6.6,0,11.8-1.7,15.5-5     C708.8,741.7,710.7,737.4,710.7,732z"/>
			<path d="M829.4,727.9v-80.6h23.3v88.1c0,6-1.3,11.3-3.9,15.7c-2.6,4.4-6.1,7.9-10.6,10.3c-4.4,2.4-9.1,4.2-14.1,5.3     c-4.9,1.1-10.2,1.7-15.9,1.7c-5.6,0-11-0.6-16-1.7c-5-1.1-9.7-2.9-14.2-5.3c-4.4-2.4-8-5.8-10.6-10.3c-2.6-4.4-3.9-9.7-3.9-15.7     v-88.1h23.3v80.6c0,7.8,1.4,13.4,4.3,16.8c2.9,3.5,8.5,5.2,16.8,5.2c8.5,0,14.1-1.7,17-5.2C827.9,741.3,829.4,735.7,829.4,727.9z     "/>
			<path d="M976.2,767.2h-23.7l-14.2-33.4h-30.9v33.4h-23.3V647.5h50.1c13.7,0,24,3.9,31.1,11.7c7.1,7.8,10.6,17.5,10.6,29     c0,5.6-0.2,10-0.5,13.3c-0.4,3.3-1.8,7.6-4.3,12.8c-2.5,5.2-6.3,9.6-11.4,13.2L976.2,767.2z M907.4,715.9h21.4     c4.4,0,8.1-0.7,11.1-2.1c3-1.4,5.3-2.9,6.7-4.5c1.4-1.7,2.5-4,3.4-7c0.8-3,1.3-5.4,1.4-7.1c0.1-1.7,0.1-4,0.1-7     c0-8.8-2.2-14.6-6.6-17.4c-4.4-2.8-11.1-4.3-20.3-4.3h-17.1V715.9z"/>
			<path d="M1107.5,767.2h-23.5l-57.3-80.9v80.9h-23.3V647.5h23.3l57.3,80.4v-80.4h23.5V767.2z"/>
			<path d="M1211.2,767.2H1141V647.5h70.7v18.8h-47.4v30.3h29l-6.6,18h-22.4v35.6h47V767.2z"/>
		</g>
	</g>
</g>
<g id="Layer_6">
	<rect x="125.7" y="473.7" fill="#939598" width="43.7" height="102.3"/>
	<g>
		<circle fill="none" stroke="#231F20" stroke-miterlimit="10" cx="1276" cy="448.7" r="97.3"/>
		<circle fill="none" stroke="#231F20" stroke-miterlimit="10" cx="1276" cy="448.7" r="85.3"/>
		<circle fill="#939598" cx="1276" cy="448.7" r="11.8"/>
		<g>
			<line fill="none" stroke="#231F20" stroke-miterlimit="10" x1="1178.7" y1="448.5" x2="1373.3" y2="448.5"/>
			<circle fill="#939598" cx="1380.1" cy="448.5" r="6.5"/>
			<circle fill="#939598" cx="1172.9" cy="448.5" r="6.5"/>
		</g>
		<g>
			<line fill="none" stroke="#231F20" stroke-miterlimit="10" x1="1297.8" y1="353" x2="1255.5" y2="542.9"/>
			<circle fill="#939598" cx="1254" cy="549.6" r="6.5"/>
			<circle fill="#939598" cx="1299" cy="347.4" r="6.5"/>
		</g>
		<g>
			<line fill="none" stroke="#231F20" stroke-miterlimit="10" x1="1257.8" y1="352.5" x2="1295" y2="543.4"/>
			<circle fill="#939598" cx="1296.3" cy="550.1" r="6.5"/>
			<circle fill="#939598" cx="1256.7" cy="346.8" r="6.5"/>
		</g>
		<g>
			<line fill="none" stroke="#231F20" stroke-miterlimit="10" x1="1221.1" y1="367.9" x2="1331.4" y2="528.2"/>
			<circle fill="#939598" cx="1335.2" cy="533.8" r="6.5"/>
			<circle fill="#939598" cx="1217.8" cy="363.2" r="6.5"/>
		</g>
		<g>
			<line fill="none" stroke="#231F20" stroke-miterlimit="10" x1="1194.9" y1="394.6" x2="1357.2" y2="501.8"/>
			<circle fill="#939598" cx="1362.9" cy="505.6" r="6.5"/>
			<circle fill="#939598" cx="1190.1" cy="391.4" r="6.5"/>
		</g>
		<g>
			<line fill="none" stroke="#231F20" stroke-miterlimit="10" x1="1180.8" y1="428.3" x2="1371.2" y2="468.4"/>
			<circle fill="#939598" cx="1377.9" cy="469.8" r="6.5"/>
			<circle fill="#939598" cx="1175.2" cy="427.1" r="6.5"/>
		</g>
		<g>
			<line fill="none" stroke="#231F20" stroke-miterlimit="10" x1="1222.2" y1="529.7" x2="1330.3" y2="368"/>
			<circle fill="#939598" cx="1334.1" cy="362.4" r="6.5"/>
			<circle fill="#939598" cx="1218.9" cy="534.6" r="6.5"/>
		</g>
		<g>
			<line fill="none" stroke="#231F20" stroke-miterlimit="10" x1="1180.8" y1="468.3" x2="1371.3" y2="428.9"/>
			<circle fill="#939598" cx="1377.9" cy="427.5" r="6.5"/>
			<circle fill="#939598" cx="1175.1" cy="469.4" r="6.5"/>
		</g>
		<g>
			<line fill="none" stroke="#231F20" stroke-miterlimit="10" x1="1194.8" y1="502.2" x2="1357.4" y2="395.3"/>
			<circle fill="#939598" cx="1363.1" cy="391.6" r="6.5"/>
			<circle fill="#939598" cx="1190" cy="505.4" r="6.5"/>
		</g>
		<g>
			<line fill="none" stroke="#231F20" stroke-miterlimit="10" x1="1238.3" y1="358.5" x2="1314.3" y2="537.5"/>
			<circle fill="#939598" cx="1317" cy="543.8" r="6.5"/>
			<circle fill="#939598" cx="1236" cy="353.1" r="6.5"/>
		</g>
		<g>
			<line fill="none" stroke="#231F20" stroke-miterlimit="10" x1="1238.3" y1="538.5" x2="1314.3" y2="359.4"/>
			<circle fill="#939598" cx="1317" cy="353.1" r="6.5"/>
			<circle fill="#939598" cx="1236" cy="543.8" r="6.5"/>
		</g>
		<g>
			<line fill="none" stroke="#231F20" stroke-miterlimit="10" x1="1186.2" y1="411" x2="1365.9" y2="485.5"/>
			<circle fill="#939598" cx="1372.2" cy="488.1" r="6.5"/>
			<circle fill="#939598" cx="1180.8" cy="408.8" r="6.5"/>
		</g>
		<g>
			<line fill="none" stroke="#231F20" stroke-miterlimit="10" x1="1186.2" y1="485.9" x2="1365.9" y2="411.4"/>
			<circle fill="#939598" cx="1372.2" cy="408.8" r="6.5"/>
			<circle fill="#939598" cx="1180.8" cy="488.1" r="6.5"/>
		</g>
		<g>
			<line fill="none" stroke="#231F20" stroke-miterlimit="10" x1="1207.4" y1="379.3" x2="1344.9" y2="516.9"/>
			<circle fill="#939598" cx="1349.7" cy="521.7" r="6.5"/>
			<circle fill="#939598" cx="1203.3" cy="375.2" r="6.5"/>
		</g>
		<g>
			<line fill="none" stroke="#231F20" stroke-miterlimit="10" x1="1207.4" y1="517.6" x2="1344.9" y2="380"/>
			<circle fill="#939598" cx="1349.7" cy="375.2" r="6.5"/>
			<circle fill="#939598" cx="1203.3" cy="521.7" r="6.5"/>
		</g>
		<g>
			<line fill="none" stroke="#231F20" stroke-miterlimit="10" x1="1276.5" y1="546.2" x2="1276.5" y2="351.7"/>
			<circle fill="#939598" cx="1276.5" cy="344.9" r="6.5"/>
			<circle fill="#939598" cx="1276.5" cy="552" r="6.5"/>
		</g>
	</g>
	<rect x="1346.4" y="492" fill="#939598" width="66.2" height="84"/>
	<rect x="1271.9" y="459.8" fill="#939598" width="66.2" height="116.2"/>
	<rect x="1142.4" y="451.6" fill="#939598" width="45.2" height="124.4"/>
	<rect x="1200" y="451.6" fill="#939598" width="45.2" height="124.4"/>
	<rect x="686.6" y="336.1" fill="#939598" width="67.5" height="239.9"/>
</g>
<g id="Layer_5">
	<rect x="-12.5" y="450.5" fill="#6D6E71" width="63.5" height="125.5"/>
	<rect x="494.1" y="343.6" fill="#6D6E71" width="71" height="232.4"/>
	<polygon fill="#6D6E71" points="1129.1,576 1040.1,576 1040.1,387 1084.6,387 1084.6,352.6 1129.1,352.6  "/>
</g>
<g id="Layer_4">
	<rect x="51" y="394" fill="#58595B" width="74.7" height="182"/>
	<rect x="917.9" y="295.6" fill="#58595B" width="56.7" height="280.4"/>
	<g>
		<rect x="581.9" y="234.1" fill="#58595B" width="92.7" height="341.9"/>
		<rect x="601.5" y="206" fill="#58595B" width="53.5" height="29.1"/>
		<polygon fill="#58595B" points="642.7,206 613.9,206 613.9,154 628.3,140 642.7,154   "/>
		<line fill="#58595B" x1="628.3" y1="119.7" x2="628.3" y2="206"/>
	</g>
</g>
<g id="Layer_3">
	<g>
		<g>
			<rect x="177" y="424" fill="#414042" width="309" height="152"/>
			<rect x="265" y="417.5" fill="#414042" width="133" height="158.5"/>
		</g>
		<g>
			<rect x="279" y="400.5" fill="#414042" width="105" height="25.5"/>
			<rect x="281" y="390.5" fill="#414042" width="101" height="13.5"/>
			<rect x="323.3" y="346.3" fill="#414042" width="16.5" height="14.5"/>
			<rect x="326.3" y="342" fill="#414042" width="10.5" height="5.8"/>
			<polygon fill="#414042" points="332.8,344 330.3,344 331.5,295.8    "/>
			<path fill="#414042" d="M378,394.5h-93c0,0,10.5-37.5,46.5-37.5C368,357,378,394.5,378,394.5z"/>
		</g>
		<g>
			<rect x="222.3" y="390.4" fill="#414042" width="8.9" height="7.8"/>
			<rect x="223.9" y="388.1" fill="#414042" width="5.7" height="3.1"/>
			<polygon fill="#414042" points="227.4,389.1 226.1,389.1 226.8,363.1    "/>
			<path fill="#414042" d="M251.9,416.4h-50.3c0,0,5.7-20.3,25.1-20.3C246.5,396.2,251.9,416.4,251.9,416.4z"/>
			<rect x="201.6" y="416.4" fill="#414042" width="50.3" height="8.4"/>
		</g>
		<g>
			<rect x="432.2" y="390.4" fill="#414042" width="8.9" height="7.8"/>
			<rect x="433.8" y="388.1" fill="#414042" width="5.7" height="3.1"/>
			<polygon fill="#414042" points="437.3,389.1 436,389.1 436.6,363.1    "/>
			<path fill="#414042" d="M461.8,416.4h-50.3c0,0,5.7-20.3,25.1-20.3C456.4,396.2,461.8,416.4,461.8,416.4z"/>
			<rect x="411.5" y="416.4" fill="#414042" width="50.3" height="8.4"/>
		</g>
	</g>
	<rect x="538" y="413.3" fill="#414042" width="88" height="162.8"/>
	<g>
		<rect x="719.7" y="420.6" fill="#414042" width="72" height="155.4"/>
		<rect x="733" y="400.5" fill="#414042" width="58.7" height="29.8"/>
		<rect x="782.8" y="394.3" fill="#414042" width="8.9" height="18"/>
	</g>
	<g>
		<rect x="982" y="451.6" fill="#414042" width="100.3" height="124.4"/>
		<rect x="994.7" y="446.6" fill="#414042" width="74.9" height="8.3"/>
		<rect x="987.9" y="444.1" fill="#414042" width="88.5" height="3.4"/>
	</g>
</g>
<g id="Layer_2">
	<g>
		<rect x="654.5" y="462" fill="#231F20" width="55.5" height="114"/>
		<rect x="664.5" y="453.5" fill="#231F20" width="33.8" height="11.5"/>
	</g>
	<g>
		<rect x="805" y="249" fill="#231F20" width="99" height="327"/>
		<rect x="819" y="240.3" fill="#231F20" width="71" height="14.3"/>
		<rect x="827.3" y="230.3" fill="#231F20" width="54.5" height="13.5"/>
		<g>
			<g>
				<polygon fill="#231F20" points="864,230.8 845,230.8 845,94 846,94 846,229.8 863,229.8 863,94 864,94     "/>
			</g>
		</g>
		<g>
			<path fill="#231F20" d="M864,230.8h-19v-89.3h19V230.8z M846,229.8h17v-87.3h-17V229.8z"/>
		</g>
		<g>
			<path fill="#231F20" d="M864,218.4h-19v-64.6h19V218.4z M846,217.4h17v-62.6h-17V217.4z"/>
		</g>
		<g>
			<path fill="#231F20" d="M864,202.8h-19v-33.3h19V202.8z M846,201.8h17v-31.3h-17V201.8z"/>
		</g>
		<g>
			<line fill="#FFFFFF" x1="854.5" y1="134.3" x2="854.5" y2="230.3"/>
			<rect x="854" y="134.3" fill="#231F20" width="1" height="95.9"/>
		</g>
	</g>
	<rect x="714" y="509" fill="#231F20" width="37" height="65"/>
</g>
<g id="Layer_1">
	<rect x="-29.3" y="574" fill="#231F20" width="1455.1" height="30.1"/>
</g>
</svg>
